<svg xmlns="http://www.w3.org/2000/svg" width="860" height="1820" viewBox="0 0 860 1820">
  <defs>
    <linearGradient id="heroLine" x1="0%" y1="0%" x2="100%" y2="0%">
      <stop offset="0%" stop-color="transparent"/>
      <stop offset="40%" stop-color="#b44fff"/>
      <stop offset="60%" stop-color="#ff6be0"/>
      <stop offset="100%" stop-color="transparent"/>
    </linearGradient>
    <linearGradient id="avatarGrad" x1="0%" y1="0%" x2="100%" y2="100%">
      <stop offset="0%" stop-color="#1a1033"/>
      <stop offset="100%" stop-color="#7c3aed"/>
    </linearGradient>
    <linearGradient id="skillBar" x1="0%" y1="0%" x2="100%" y2="0%">
      <stop offset="0%" stop-color="#7c3aed"/>
      <stop offset="100%" stop-color="#b44fff"/>
    </linearGradient>
    <linearGradient id="sectionLine" x1="0%" y1="0%" x2="100%" y2="0%">
      <stop offset="0%" stop-color="#b44fff" stop-opacity="0.5"/>
      <stop offset="100%" stop-color="transparent"/>
    </linearGradient>
    <linearGradient id="bgGrad" x1="50%" y1="0%" x2="50%" y2="100%">
      <stop offset="0%" stop-color="#0f0b20"/>
      <stop offset="100%" stop-color="#07050f"/>
    </linearGradient>
    <filter id="glow">
      <feGaussianBlur stdDeviation="3" result="blur"/>
      <feMerge><feMergeNode in="blur"/><feMergeNode in="SourceGraphic"/></feMerge>
    </filter>
    <filter id="textGlow">
      <feGaussianBlur stdDeviation="4" result="blur"/>
      <feMerge><feMergeNode in="blur"/><feMergeNode in="SourceGraphic"/></feMerge>
    </filter>
  </defs>

  <!-- BACKGROUND -->
  <rect width="860" height="1820" fill="url(#bgGrad)"/>
  <!-- grid lines -->
  <line x1="0" y1="50" x2="860" y2="50" stroke="#6432c8" stroke-opacity="0.04"/>
  <line x1="0" y1="100" x2="860" y2="100" stroke="#6432c8" stroke-opacity="0.04"/>
  <line x1="50" y1="0" x2="50" y2="1820" stroke="#6432c8" stroke-opacity="0.04"/>
  <line x1="100" y1="0" x2="100" y2="1820" stroke="#6432c8" stroke-opacity="0.04"/>

  <!-- ══ TITLEBAR ══ -->
  <rect x="20" y="20" width="820" height="34" rx="10" ry="10" fill="#110e22" stroke="#b44fff" stroke-opacity="0.18" stroke-width="1"/>
  <circle cx="40" cy="37" r="5" fill="#ff5f57"/>
  <circle cx="58" cy="37" r="5" fill="#febc2e"/>
  <circle cx="76" cy="37" r="5" fill="#28c840"/>
  <text x="98" y="41" font-family="monospace" font-size="11" fill="#8b7aa8">jia@void:~ —</text>
  <text x="190" y="41" font-family="monospace" font-size="11" fill="#c084fc">/profile/README.md</text>
  <text x="620" y="41" font-family="monospace" font-size="11" fill="#c084fc">◈ cyber-void-terminal</text>

  <!-- ══ HERO ══ -->
  <rect x="20" y="54" width="820" height="280" rx="0" fill="#110e22" stroke="#b44fff" stroke-opacity="0.18" stroke-width="1"/>
  <rect x="20" y="54" width="820" height="2" fill="url(#heroLine)"/>
  <rect x="20" y="316" width="820" height="18" rx="10" ry="10" fill="#110e22" stroke="#b44fff" stroke-opacity="0.18" stroke-width="1"/>
  <rect x="20" y="316" width="820" height="10" fill="#110e22"/>

  <!-- avatar ring -->
  <circle cx="430" cy="135" r="57" fill="none" stroke="#b44fff" stroke-opacity="0.25" stroke-width="1"/>
  <circle cx="430" cy="135" r="51" fill="none" stroke="#b44fff" stroke-width="2" filter="url(#glow)"/>
  <circle cx="430" cy="135" r="44" fill="url(#avatarGrad)"/>
  <!-- decorative inner lines on avatar -->
  <line x1="400" y1="120" x2="460" y2="120" stroke="#b44fff" stroke-opacity="0.3" stroke-width="0.5"/>
  <line x1="395" y1="135" x2="465" y2="135" stroke="#b44fff" stroke-opacity="0.15" stroke-width="0.5"/>
  <line x1="400" y1="150" x2="460" y2="150" stroke="#b44fff" stroke-opacity="0.3" stroke-width="0.5"/>
  <text x="430" y="143" font-family="monospace" font-size="22" font-weight="900" fill="#f0d4ff" text-anchor="middle">JA</text>

  <!-- name -->
  <text x="430" y="215" font-family="monospace" font-size="28" font-weight="900" fill="#f0d4ff" text-anchor="middle" filter="url(#textGlow)" letter-spacing="5">JIA AHMED</text>
  <!-- subtitle -->
  <text x="430" y="242" font-family="monospace" font-size="12" fill="#c084fc" text-anchor="middle" letter-spacing="4">
    <tspan fill="#b44fff">CYBER SECURITY</tspan>  ·  FULL STACK  ·  <tspan fill="#b44fff">AI / ML</tspan>
  </text>

  <!-- badges -->
  <rect x="175" y="255" width="68" height="20" rx="10" fill="#6c3fc01f" stroke="#b44fff" stroke-opacity="0.7" stroke-width="1"/>
  <text x="209" y="269" font-family="monospace" font-size="9" fill="#b44fff" text-anchor="middle">● online</text>

  <rect x="251" y="255" width="95" height="20" rx="10" fill="#6c3fc01f" stroke="#b44fff" stroke-opacity="0.4" stroke-width="1"/>
  <text x="298" y="269" font-family="monospace" font-size="9" fill="#dda6fe" text-anchor="middle">📍 Pakistan 🇵🇰</text>

  <rect x="354" y="255" width="95" height="20" rx="10" fill="#6c3fc01f" stroke="#b44fff" stroke-opacity="0.4" stroke-width="1"/>
  <text x="401" y="269" font-family="monospace" font-size="9" fill="#dda6fe" text-anchor="middle">@jiaahmed4444</text>

  <rect x="457" y="255" width="195" height="20" rx="10" fill="#6c3fc01f" stroke="#b44fff" stroke-opacity="0.7" stroke-width="1"/>
  <text x="554" y="269" font-family="monospace" font-size="9" fill="#b44fff" text-anchor="middle">⚡ optimizing WAF models</text>

  <!-- ══ PROFILE SECTION ══ -->
  <!-- section icon (inline geometric replacement for gif) -->
  <rect x="20" y="352" width="40" height="40" rx="6" fill="#1a1033" stroke="#b44fff" stroke-opacity="0.3" stroke-width="1"/>
  <text x="40" y="378" font-size="20" text-anchor="middle">👤</text>
  <text x="70" y="378" font-family="monospace" font-size="12" font-weight="700" fill="#b44fff" letter-spacing="4">
    <tspan fill="#8b7aa8">&gt; </tspan>PROFILE
  </text>
  <line x1="178" y1="372" x2="840" y2="372" stroke="url(#sectionLine)" stroke-width="1"/>

  <!-- profile box -->
  <rect x="20" y="402" width="820" height="318" rx="8" fill="#110e22" stroke="#b44fff" stroke-opacity="0.18" stroke-width="1"/>

  <line x1="20" y1="435" x2="840" y2="435" stroke="#b44fff" stroke-opacity="0.07"/>
  <text x="40" y="424" font-family="monospace" font-size="11" fill="#8b7aa8">user</text>
  <text x="190" y="424" font-family="monospace" font-size="11" fill="#dda6fe">Jia Ahmed</text>

  <line x1="20" y1="457" x2="840" y2="457" stroke="#b44fff" stroke-opacity="0.07"/>
  <text x="40" y="449" font-family="monospace" font-size="11" fill="#8b7aa8">alias</text>
  <text x="190" y="449" font-family="monospace" font-size="11" fill="#b44fff">jiaahmed4444</text>

  <line x1="20" y1="479" x2="840" y2="479" stroke="#b44fff" stroke-opacity="0.07"/>
  <text x="40" y="471" font-family="monospace" font-size="11" fill="#8b7aa8">location</text>
  <text x="190" y="471" font-family="monospace" font-size="11" fill="#dda6fe">Pakistan 🇵🇰</text>

  <line x1="20" y1="501" x2="840" y2="501" stroke="#b44fff" stroke-opacity="0.07"/>
  <text x="40" y="493" font-family="monospace" font-size="11" fill="#8b7aa8">focus</text>
  <text x="190" y="493" font-family="monospace" font-size="11" fill="#b44fff">Intelligent WAFs</text>

  <rect x="20" y="501" width="820" height="18" fill="#6c3fc01a"/>
  <line x1="20" y1="519" x2="840" y2="519" stroke="#b44fff" stroke-opacity="0.15"/>
  <text x="40" y="514" font-family="monospace" font-size="10" fill="#b44fff" fill-opacity="0.5">── runtime state ──</text>

  <line x1="20" y1="541" x2="840" y2="541" stroke="#b44fff" stroke-opacity="0.07"/>
  <text x="40" y="533" font-family="monospace" font-size="11" fill="#8b7aa8">state</text>
  <text x="190" y="533" font-family="monospace" font-size="11" fill="#dda6fe">optimizing models_</text>

  <line x1="20" y1="563" x2="840" y2="563" stroke="#b44fff" stroke-opacity="0.07"/>
  <text x="40" y="555" font-family="monospace" font-size="11" fill="#8b7aa8">aesthetic</text>
  <text x="190" y="555" font-family="monospace" font-size="11" fill="#dda6fe">cyberpunk / void</text>

  <line x1="20" y1="585" x2="840" y2="585" stroke="#b44fff" stroke-opacity="0.07"/>
  <text x="40" y="577" font-family="monospace" font-size="11" fill="#8b7aa8">terminal</text>
  <text x="190" y="577" font-family="monospace" font-size="11" fill="#b44fff">deep purple neon</text>

  <line x1="20" y1="607" x2="840" y2="607" stroke="#b44fff" stroke-opacity="0.07"/>
  <text x="40" y="599" font-family="monospace" font-size="11" fill="#8b7aa8">soundtrack</text>
  <text x="190" y="599" font-family="monospace" font-size="11" fill="#dda6fe">dark synthwave</text>

  <rect x="20" y="607" width="820" height="18" fill="#6c3fc01a"/>
  <line x1="20" y1="625" x2="840" y2="625" stroke="#b44fff" stroke-opacity="0.15"/>
  <text x="40" y="620" font-family="monospace" font-size="10" fill="#b44fff" fill-opacity="0.5">── currently weaponizing ──</text>

  <line x1="20" y1="647" x2="840" y2="647" stroke="#b44fff" stroke-opacity="0.07"/>
  <text x="40" y="639" font-family="monospace" font-size="11" fill="#8b7aa8">&gt; module[0]</text>
  <text x="190" y="639" font-family="monospace" font-size="11" fill="#dda6fe">Explainable AI (XAI)</text>

  <line x1="20" y1="669" x2="840" y2="669" stroke="#b44fff" stroke-opacity="0.07"/>
  <text x="40" y="661" font-family="monospace" font-size="11" fill="#8b7aa8">&gt; module[1]</text>
  <text x="190" y="661" font-family="monospace" font-size="11" fill="#dda6fe">Advanced WAF Systems</text>

  <line x1="20" y1="691" x2="840" y2="691" stroke="#b44fff" stroke-opacity="0.07"/>
  <text x="40" y="683" font-family="monospace" font-size="11" fill="#8b7aa8">&gt; module[2]</text>
  <text x="190" y="683" font-family="monospace" font-size="11" fill="#dda6fe">Cloud Security &amp; Orchestration</text>

  <line x1="20" y1="713" x2="840" y2="713" stroke="#b44fff" stroke-opacity="0.07"/>
  <text x="40" y="705" font-family="monospace" font-size="11" fill="#8b7aa8">&gt; module[3]</text>
  <text x="190" y="705" font-family="monospace" font-size="11" fill="#dda6fe">Defensive Machine Learning</text>

  <!-- ══ LOADOUT ══ -->
  <rect x="20" y="740" width="40" height="40" rx="6" fill="#1a1033" stroke="#b44fff" stroke-opacity="0.3" stroke-width="1"/>
  <text x="40" y="766" font-size="20" text-anchor="middle">⚔️</text>
  <text x="70" y="766" font-family="monospace" font-size="12" font-weight="700" fill="#b44fff" letter-spacing="4">
    <tspan fill="#8b7aa8">&gt; </tspan>LOADOUT
  </text>
  <line x1="192" y1="760" x2="840" y2="760" stroke="url(#sectionLine)" stroke-width="1"/>

  <rect x="20" y="790" width="820" height="188" rx="8" fill="#110e22" stroke="#b44fff" stroke-opacity="0.18" stroke-width="1"/>
  <text x="40" y="812" font-family="monospace" font-size="10" fill="#8b7aa8">$ scan --skills --verbose</text>

  <!-- skill bars -->
  <text x="40" y="838" font-family="monospace" font-size="11" fill="#dda6fe">Offensive / Defensive Sec</text>
  <rect x="268" y="828" width="520" height="6" rx="3" fill="#6c3fc02f"/>
  <rect x="268" y="828" width="478" height="6" rx="3" fill="url(#skillBar)" filter="url(#glow)"/>
  <text x="800" y="836" font-family="monospace" font-size="10" fill="#8b7aa8">92%</text>

  <text x="40" y="860" font-family="monospace" font-size="11" fill="#dda6fe">AI / Machine Learning</text>
  <rect x="268" y="850" width="520" height="6" rx="3" fill="#6c3fc02f"/>
  <rect x="268" y="850" width="447" height="6" rx="3" fill="url(#skillBar)" filter="url(#glow)"/>
  <text x="800" y="858" font-family="monospace" font-size="10" fill="#8b7aa8">86%</text>

  <text x="40" y="882" font-family="monospace" font-size="11" fill="#dda6fe">Linux &amp; Orchestration</text>
  <rect x="268" y="872" width="520" height="6" rx="3" fill="#6c3fc02f"/>
  <rect x="268" y="872" width="426" height="6" rx="3" fill="url(#skillBar)" filter="url(#glow)"/>
  <text x="800" y="880" font-family="monospace" font-size="10" fill="#8b7aa8">82%</text>

  <text x="40" y="904" font-family="monospace" font-size="11" fill="#dda6fe">Python / Bash Scripting</text>
  <rect x="268" y="894" width="520" height="6" rx="3" fill="#6c3fc02f"/>
  <rect x="268" y="894" width="426" height="6" rx="3" fill="url(#skillBar)" filter="url(#glow)"/>
  <text x="800" y="902" font-family="monospace" font-size="10" fill="#8b7aa8">82%</text>

  <text x="40" y="926" font-family="monospace" font-size="11" fill="#dda6fe">Full Stack (Next/Node)</text>
  <rect x="268" y="916" width="520" height="6" rx="3" fill="#6c3fc02f"/>
  <rect x="268" y="916" width="406" height="6" rx="3" fill="url(#skillBar)" filter="url(#glow)"/>
  <text x="800" y="924" font-family="monospace" font-size="10" fill="#8b7aa8">78%</text>

  <text x="40" y="948" font-family="monospace" font-size="11" fill="#dda6fe">Cloud Infrastructure</text>
  <rect x="268" y="938" width="520" height="6" rx="3" fill="#6c3fc02f"/>
  <rect x="268" y="938" width="374" height="6" rx="3" fill="url(#skillBar)" filter="url(#glow)"/>
  <text x="800" y="946" font-family="monospace" font-size="10" fill="#8b7aa8">72%</text>

  <!-- ══ TECH ARSENAL ══ -->
  <rect x="20" y="1000" width="40" height="40" rx="6" fill="#1a1033" stroke="#b44fff" stroke-opacity="0.3" stroke-width="1"/>
  <text x="40" y="1026" font-size="20" text-anchor="middle">🛡️</text>
  <text x="70" y="1026" font-family="monospace" font-size="12" font-weight="700" fill="#b44fff" letter-spacing="4">
    <tspan fill="#8b7aa8">&gt; </tspan>TECH ARSENAL
  </text>
  <line x1="244" y1="1020" x2="840" y2="1020" stroke="url(#sectionLine)" stroke-width="1"/>

  <rect x="20" y="1050" width="820" height="330" rx="8" fill="#110e22" stroke="#b44fff" stroke-opacity="0.18" stroke-width="1"/>

  <text x="40" y="1072" font-family="monospace" font-size="10" fill="#8b7aa8">// core languages</text>
  <g font-family="monospace" font-size="10" fill="#c084fc">
    <rect x="40" y="1080" width="60" height="18" rx="4" fill="#3b2d7a33" stroke="#b44fff" stroke-opacity="0.25" stroke-width="1"/>
    <text x="70" y="1093" text-anchor="middle">Python</text>
    <rect x="108" y="1080" width="85" height="18" rx="4" fill="#3b2d7a33" stroke="#b44fff" stroke-opacity="0.25" stroke-width="1"/>
    <text x="150" y="1093" text-anchor="middle">JavaScript</text>
    <rect x="201" y="1080" width="88" height="18" rx="4" fill="#3b2d7a33" stroke="#b44fff" stroke-opacity="0.25" stroke-width="1"/>
    <text x="245" y="1093" text-anchor="middle">TypeScript</text>
    <rect x="297" y="1080" width="44" height="18" rx="4" fill="#3b2d7a33" stroke="#b44fff" stroke-opacity="0.25" stroke-width="1"/>
    <text x="319" y="1093" text-anchor="middle">Bash</text>
    <rect x="349" y="1080" width="55" height="18" rx="4" fill="#3b2d7a33" stroke="#b44fff" stroke-opacity="0.25" stroke-width="1"/>
    <text x="376" y="1093" text-anchor="middle">C/C++</text>
    <rect x="412" y="1080" width="36" height="18" rx="4" fill="#3b2d7a33" stroke="#b44fff" stroke-opacity="0.25" stroke-width="1"/>
    <text x="430" y="1093" text-anchor="middle">SQL</text>
  </g>

  <text x="40" y="1118" font-family="monospace" font-size="10" fill="#8b7aa8">// infrastructure &amp; deployment</text>
  <g font-family="monospace" font-size="10" fill="#8af3ff">
    <rect x="40" y="1126" width="56" height="18" rx="4" fill="#00b4c81f" stroke="#00f5ff" stroke-opacity="0.2" stroke-width="1"/>
    <text x="68" y="1139" text-anchor="middle">Docker</text>
    <rect x="104" y="1126" width="82" height="18" rx="4" fill="#00b4c81f" stroke="#00f5ff" stroke-opacity="0.2" stroke-width="1"/>
    <text x="145" y="1139" text-anchor="middle">Kubernetes</text>
    <rect x="194" y="1126" width="38" height="18" rx="4" fill="#00b4c81f" stroke="#00f5ff" stroke-opacity="0.2" stroke-width="1"/>
    <text x="213" y="1139" text-anchor="middle">AWS</text>
    <rect x="240" y="1126" width="38" height="18" rx="4" fill="#00b4c81f" stroke="#00f5ff" stroke-opacity="0.2" stroke-width="1"/>
    <text x="259" y="1139" text-anchor="middle">GCP</text>
    <rect x="286" y="1126" width="74" height="18" rx="4" fill="#00b4c81f" stroke="#00f5ff" stroke-opacity="0.2" stroke-width="1"/>
    <text x="323" y="1139" text-anchor="middle">Terraform</text>
    <rect x="368" y="1126" width="52" height="18" rx="4" fill="#00b4c81f" stroke="#00f5ff" stroke-opacity="0.2" stroke-width="1"/>
    <text x="394" y="1139" text-anchor="middle">NGINX</text>
    <rect x="428" y="1126" width="46" height="18" rx="4" fill="#00b4c81f" stroke="#00f5ff" stroke-opacity="0.2" stroke-width="1"/>
    <text x="451" y="1139" text-anchor="middle">Linux</text>
  </g>

  <text x="40" y="1164" font-family="monospace" font-size="10" fill="#8b7aa8">// web app security ecosystem</text>
  <g font-family="monospace" font-size="10" fill="#f0a8ff">
    <rect x="40" y="1172" width="88" height="18" rx="4" fill="#b400961f" stroke="#ff6be0" stroke-opacity="0.25" stroke-width="1"/>
    <text x="84" y="1185" text-anchor="middle">ModSecurity</text>
    <rect x="136" y="1172" width="56" height="18" rx="4" fill="#b400961f" stroke="#ff6be0" stroke-opacity="0.25" stroke-width="1"/>
    <text x="164" y="1185" text-anchor="middle">OWASP</text>
    <rect x="200" y="1172" width="76" height="18" rx="4" fill="#b400961f" stroke="#ff6be0" stroke-opacity="0.25" stroke-width="1"/>
    <text x="238" y="1185" text-anchor="middle">Burp Suite</text>
    <rect x="284" y="1172" width="50" height="18" rx="4" fill="#b400961f" stroke="#ff6be0" stroke-opacity="0.25" stroke-width="1"/>
    <text x="309" y="1185" text-anchor="middle">Snort</text>
    <rect x="342" y="1172" width="70" height="18" rx="4" fill="#b400961f" stroke="#ff6be0" stroke-opacity="0.25" stroke-width="1"/>
    <text x="377" y="1185" text-anchor="middle">Suricata</text>
    <rect x="420" y="1172" width="80" height="18" rx="4" fill="#b400961f" stroke="#ff6be0" stroke-opacity="0.25" stroke-width="1"/>
    <text x="460" y="1185" text-anchor="middle">Metasploit</text>
    <rect x="508" y="1172" width="76" height="18" rx="4" fill="#b400961f" stroke="#ff6be0" stroke-opacity="0.25" stroke-width="1"/>
    <text x="546" y="1185" text-anchor="middle">Wireshark</text>
    <rect x="592" y="1172" width="42" height="18" rx="4" fill="#b400961f" stroke="#ff6be0" stroke-opacity="0.25" stroke-width="1"/>
    <text x="613" y="1185" text-anchor="middle">Zeek</text>
    <rect x="642" y="1172" width="70" height="18" rx="4" fill="#b400961f" stroke="#ff6be0" stroke-opacity="0.25" stroke-width="1"/>
    <text x="677" y="1185" text-anchor="middle">ELK Stack</text>
  </g>

  <text x="40" y="1210" font-family="monospace" font-size="10" fill="#8b7aa8">// ai/ml stack</text>
  <g font-family="monospace" font-size="10" fill="#c084fc">
    <rect x="40" y="1218" width="82" height="18" rx="4" fill="#3b2d7a33" stroke="#b44fff" stroke-opacity="0.25" stroke-width="1"/>
    <text x="81" y="1231" text-anchor="middle">TensorFlow</text>
    <rect x="130" y="1218" width="60" height="18" rx="4" fill="#3b2d7a33" stroke="#b44fff" stroke-opacity="0.25" stroke-width="1"/>
    <text x="160" y="1231" text-anchor="middle">PyTorch</text>
    <rect x="198" y="1218" width="84" height="18" rx="4" fill="#3b2d7a33" stroke="#b44fff" stroke-opacity="0.25" stroke-width="1"/>
    <text x="240" y="1231" text-anchor="middle">scikit-learn</text>
    <rect x="290" y="1218" width="46" height="18" rx="4" fill="#3b2d7a33" stroke="#b44fff" stroke-opacity="0.25" stroke-width="1"/>
    <text x="313" y="1231" text-anchor="middle">SHAP</text>
    <rect x="344" y="1218" width="40" height="18" rx="4" fill="#3b2d7a33" stroke="#b44fff" stroke-opacity="0.25" stroke-width="1"/>
    <text x="364" y="1231" text-anchor="middle">LIME</text>
    <rect x="392" y="1218" width="56" height="18" rx="4" fill="#3b2d7a33" stroke="#b44fff" stroke-opacity="0.25" stroke-width="1"/>
    <text x="420" y="1231" text-anchor="middle">Pandas</text>
    <rect x="456" y="1218" width="52" height="18" rx="4" fill="#3b2d7a33" stroke="#b44fff" stroke-opacity="0.25" stroke-width="1"/>
    <text x="482" y="1231" text-anchor="middle">NumPy</text>
  </g>

  <text x="40" y="1256" font-family="monospace" font-size="10" fill="#8b7aa8">// fullstack</text>
  <g font-family="monospace" font-size="10" fill="#c084fc">
    <rect x="40" y="1264" width="60" height="18" rx="4" fill="#3b2d7a33" stroke="#b44fff" stroke-opacity="0.25" stroke-width="1"/>
    <text x="70" y="1277" text-anchor="middle">Next.js</text>
    <rect x="108" y="1264" width="62" height="18" rx="4" fill="#3b2d7a33" stroke="#b44fff" stroke-opacity="0.25" stroke-width="1"/>
    <text x="139" y="1277" text-anchor="middle">Node.js</text>
    <rect x="178" y="1264" width="52" height="18" rx="4" fill="#3b2d7a33" stroke="#b44fff" stroke-opacity="0.25" stroke-width="1"/>
    <text x="204" y="1277" text-anchor="middle">React</text>
    <rect x="238" y="1264" width="62" height="18" rx="4" fill="#3b2d7a33" stroke="#b44fff" stroke-opacity="0.25" stroke-width="1"/>
    <text x="269" y="1277" text-anchor="middle">FastAPI</text>
    <rect x="308" y="1264" width="66" height="18" rx="4" fill="#3b2d7a33" stroke="#b44fff" stroke-opacity="0.25" stroke-width="1"/>
    <text x="341" y="1277" text-anchor="middle">MongoDB</text>
    <rect x="382" y="1264" width="82" height="18" rx="4" fill="#3b2d7a33" stroke="#b44fff" stroke-opacity="0.25" stroke-width="1"/>
    <text x="423" y="1277" text-anchor="middle">PostgreSQL</text>
  </g>

  <!-- ══ RUNTIME LOG ══ -->
  <rect x="20" y="1402" width="40" height="40" rx="6" fill="#1a1033" stroke="#b44fff" stroke-opacity="0.3" stroke-width="1"/>
  <text x="40" y="1428" font-size="20" text-anchor="middle">📡</text>
  <text x="70" y="1428" font-family="monospace" font-size="12" font-weight="700" fill="#b44fff" letter-spacing="4">
    <tspan fill="#8b7aa8">&gt; </tspan>RUNTIME LOG
  </text>
  <line x1="244" y1="1422" x2="840" y2="1422" stroke="url(#sectionLine)" stroke-width="1"/>

  <rect x="20" y="1452" width="820" height="118" rx="8" fill="#060410" stroke="#b44fff" stroke-opacity="0.18" stroke-width="1"/>
  <line x1="20" y1="1453" x2="840" y2="1453" stroke="#b44fff" stroke-opacity="0.4" stroke-width="1"/>

  <text x="40" y="1478" font-family="monospace" font-size="11" fill="#b44fff" fill-opacity="0.4">[03:14:07]</text>
  <text x="130" y="1478" font-family="monospace" font-size="11" fill="#b44fff">$</text>
  <text x="148" y="1478" font-family="monospace" font-size="11" fill="#dda6fe">monitoring_traffic --interface eth0 --anomaly-detect</text>
  <text x="790" y="1478" font-family="monospace" font-size="11" fill="#28c840">OK</text>

  <text x="40" y="1500" font-family="monospace" font-size="11" fill="#b44fff" fill-opacity="0.4">[03:14:22]</text>
  <text x="130" y="1500" font-family="monospace" font-size="11" fill="#b44fff">$</text>
  <text x="148" y="1500" font-family="monospace" font-size="11" fill="#dda6fe">train_model --arch transformer --xai shap --epochs 50</text>
  <text x="790" y="1500" font-family="monospace" font-size="11" fill="#28c840">RUN</text>

  <text x="40" y="1522" font-family="monospace" font-size="11" fill="#b44fff" fill-opacity="0.4">[03:21:05]</text>
  <text x="130" y="1522" font-family="monospace" font-size="11" fill="#b44fff">$</text>
  <text x="148" y="1522" font-family="monospace" font-size="11" fill="#dda6fe">parse_logs --matrix /var/log/nginx/access.log</text>
  <text x="790" y="1522" font-family="monospace" font-size="11" fill="#28c840">OK</text>

  <text x="40" y="1544" font-family="monospace" font-size="11" fill="#b44fff" fill-opacity="0.4">[03:33:49]</text>
  <text x="130" y="1544" font-family="monospace" font-size="11" fill="#b44fff">$</text>
  <text x="148" y="1544" font-family="monospace" font-size="11" fill="#dda6fe">compile_waf_rules --env prod --opt-level 3</text>
  <text x="790" y="1544" font-family="monospace" font-size="11" fill="#b44fff">LIVE</text>

  <!-- ══ INTERCONNECT ══ -->
  <rect x="20" y="1592" width="40" height="40" rx="6" fill="#1a1033" stroke="#b44fff" stroke-opacity="0.3" stroke-width="1"/>
  <text x="40" y="1618" font-size="20" text-anchor="middle">🔗</text>
  <text x="70" y="1618" font-family="monospace" font-size="12" font-weight="700" fill="#b44fff" letter-spacing="4">
    <tspan fill="#8b7aa8">&gt; </tspan>INTERCONNECT
  </text>
  <line x1="263" y1="1612" x2="840" y2="1612" stroke="url(#sectionLine)" stroke-width="1"/>

  <g font-family="monospace">
    <rect x="20" y="1642" width="192" height="54" rx="8" fill="#110e22" stroke="#b44fff" stroke-opacity="0.18" stroke-width="1"/>
    <text x="40" y="1664" font-size="18">🐙</text>
    <text x="68" y="1660" font-size="9" fill="#8b7aa8">GITHUB</text>
    <text x="68" y="1676" font-size="11" fill="#dda6fe">jiaahmed4444</text>

    <rect x="222" y="1642" width="192" height="54" rx="8" fill="#110e22" stroke="#b44fff" stroke-opacity="0.18" stroke-width="1"/>
    <text x="242" y="1664" font-size="18">💼</text>
    <text x="270" y="1660" font-size="9" fill="#8b7aa8">LINKEDIN</text>
    <text x="270" y="1676" font-size="11" fill="#dda6fe">Jia Ahmed</text>

    <rect x="424" y="1642" width="192" height="54" rx="8" fill="#110e22" stroke="#b44fff" stroke-opacity="0.18" stroke-width="1"/>
    <text x="444" y="1664" font-size="18">🐦</text>
    <text x="472" y="1660" font-size="9" fill="#8b7aa8">X / TWITTER</text>
    <text x="472" y="1676" font-size="11" fill="#dda6fe">@jiaahmed4444</text>

    <rect x="626" y="1642" width="194" height="54" rx="8" fill="#110e22" stroke="#b44fff" stroke-opacity="0.18" stroke-width="1"/>
    <text x="646" y="1664" font-size="18">📧</text>
    <text x="674" y="1660" font-size="9" fill="#8b7aa8">CONTACT</text>
    <text x="674" y="1676" font-size="11" fill="#dda6fe">void://ping me</text>
  </g>

  <!-- ══ FOOTER ══ -->
  <rect x="20" y="1716" width="820" height="46" rx="8" fill="#110e22" stroke="#b44fff" stroke-opacity="0.18" stroke-width="1"/>
  <text x="40" y="1744" font-family="monospace" font-size="11" fill="#c084fc">jia@void:~$</text>
  <text x="130" y="1744" font-family="monospace" font-size="11" fill="#dda6fe"> logout</text>
  <text x="430" y="1744" font-family="monospace" font-size="11" fill="#8b7aa8" text-anchor="middle">connection terminated safely...</text>
  <text x="800" y="1744" font-family="monospace" font-size="11" fill="#28c840" text-anchor="end">■ secure</text>
</svg>
